<svg xmlns="http://www.w3.org/2000/svg" width="100%" height="20%"><defs>
    <linearGradient id="hidegrad">
        <stop stop-color="white" offset="0%"/>
        <stop stop-color="white" offset="70%"/>
        <stop stop-color="black" offset="90%"/>
        <stop stop-color="black" offset="100%"/>
    </linearGradient>
</defs>
<style>
rect:hover + text {
    mask: none;
}

.label {
    font-size: 16.666666666666664px;
    fill: white;
}

.label:hover {
    mask: none;
}

.mask {
    fill: url(#hidegrad);
}
</style><mask id="mask0"><rect class="mask" x="0%" y="66.66666666666667%" width="86.8203682202687%" height="33.33333333333333%" /> </mask><rect x="0%" y="66.66666666666667%" width="86.8203682202687%" height="33.33333333333333%" fill="rgb(0, 0, 0)"/><text class="label" x="1%" y="88.88888888888889%" width="86.8203682202687%" mask="url(#mask0)"> update </text><mask id="mask1"><rect class="mask" x="45.96782219273511%" y="33.33333333333334%" width="10.064687344501571%" height="33.33333333333333%" /> </mask><rect x="45.96782219273511%" y="33.33333333333334%" width="10.064687344501571%" height="33.33333333333333%" fill="rgb(127, 0, 0)"/><text class="label" x="46.96782219273511%" y="55.55555555555556%" width="10.064687344501571%" mask="url(#mask1)"> process inputs </text><mask id="mask2"><rect class="mask" x="57.07082434897993%" y="33.33333333333334%" width="26.299552164538063%" height="33.33333333333333%" /> </mask><rect x="57.07082434897993%" y="33.33333333333334%" width="26.299552164538063%" height="33.33333333333333%" fill="rgb(127, 0, 0)"/><text class="label" x="58.07082434897993%" y="55.55555555555556%" width="26.299552164538063%" mask="url(#mask2)"> physics </text><mask id="mask3"><rect class="mask" x="58.659810913916075%" y="0%" width="1.8012937468900314%" height="33.33333333333333%" /> </mask><rect x="58.659810913916075%" y="0%" width="1.8012937468900314%" height="33.33333333333333%" fill="rgb(255, 0, 0)"/><text class="label" x="59.659810913916075%" y="22.222222222222218%" width="1.8012937468900314%" mask="url(#mask3)"> broad phase </text><mask id="mask4"><rect class="mask" x="61.227400895670925%" y="0%" width="21.237352794825014%" height="33.33333333333333%" /> </mask><rect x="61.227400895670925%" y="0%" width="21.237352794825014%" height="33.33333333333333%" fill="rgb(255, 0, 0)"/><text class="label" x="62.227400895670925%" y="22.222222222222218%" width="21.237352794825014%" mask="url(#mask4)"> narrow phase </text><mask id="mask5"><rect class="mask" x="84.1001824514845%" y="33.33333333333334%" width="1.8211975451982054%" height="33.33333333333333%" /> </mask><rect x="84.1001824514845%" y="33.33333333333334%" width="1.8211975451982054%" height="33.33333333333333%" fill="rgb(127, 0, 0)"/><text class="label" x="85.1001824514845%" y="55.55555555555556%" width="1.8211975451982054%" mask="url(#mask5)"> network sync </text><mask id="mask6"><rect class="mask" x="87.44402056725825%" y="66.66666666666667%" width="12.555979432741749%" height="33.33333333333333%" /> </mask><rect x="87.44402056725825%" y="66.66666666666667%" width="12.555979432741749%" height="33.33333333333333%" fill="rgb(0, 0, 0)"/><text class="label" x="88.44402056725825%" y="88.88888888888889%" width="12.555979432741749%" mask="url(#mask6)"> render </text><mask id="mask7"><rect class="mask" x="88.90694974290926%" y="33.33333333333334%" width="1.9373030353292409%" height="33.33333333333333%" /> </mask><rect x="88.90694974290926%" y="33.33333333333334%" width="1.9373030353292409%" height="33.33333333333333%" fill="rgb(127, 0, 0)"/><text class="label" x="89.90694974290926%" y="55.55555555555556%" width="1.9373030353292409%" mask="url(#mask7)"> build display lists </text><mask id="mask8"><rect class="mask" x="91.61718361253939%" y="33.33333333333334%" width="7.281472881074813%" height="33.33333333333333%" /> </mask><rect x="91.61718361253939%" y="33.33333333333334%" width="7.281472881074813%" height="33.33333333333333%" fill="rgb(127, 0, 0)"/><text class="label" x="92.61718361253939%" y="55.55555555555556%" width="7.281472881074813%" mask="url(#mask8)"> draw calls </text></svg>